<svg width="263" height="94" viewBox="0 0 263 94" fill="none" xmlns="http://www.w3.org/2000/svg">
<g clip-path="url(#clip0_1065_10242)">
<path d="M97.1041 93.22C122.846 93.22 143.714 72.352 143.714 46.61C143.714 20.868 122.846 0 97.1041 0C71.3621 0 50.4941 20.868 50.4941 46.61C50.4941 72.352 71.3621 93.22 97.1041 93.22Z" fill="#FADA00"/>
<path d="M184.572 9.96738C183.309 9.96738 182.286 10.9904 182.286 12.2534V66.0131L138.068 10.5418C137.462 9.78163 136.442 9.4873 135.524 9.81021C134.607 10.1303 133.993 10.9961 133.993 11.9677V80.8354H59.9813V12.2534C59.9813 11.2561 59.3354 10.3732 58.3839 10.0731C57.4323 9.77306 56.3978 10.1217 55.8235 10.939L29.9852 47.6989L4.42131 10.9475C3.84979 10.1274 2.81535 9.77306 1.86092 10.0731C0.906483 10.3732 0.257812 11.2561 0.257812 12.2534V72.5484C0.257812 73.8114 1.28083 74.8345 2.54388 74.8345C3.80693 74.8345 4.82994 73.8114 4.82994 72.5484V19.5431L28.0992 52.994C28.525 53.6055 29.2251 53.9713 29.9709 53.9741H29.9767C30.7196 53.9741 31.4197 53.6112 31.8455 53.0025L55.4091 19.4803V83.1214C55.4091 84.3845 56.4321 85.4075 57.6952 85.4075H136.279C137.542 85.4075 138.565 84.3845 138.565 83.1214V18.503L182.783 73.9743C183.389 74.7344 184.409 75.0288 185.326 74.7087C186.243 74.3887 186.858 73.5228 186.858 72.5513V12.2534C186.858 10.9904 185.835 9.96738 184.572 9.96738Z" fill="black"/>
<path d="M262.378 70.9824L235.213 12.0963C234.576 10.7275 233.665 9.81592 232.022 9.81592H231.839C230.198 9.81592 229.287 10.7275 228.647 12.0963L201.391 71.1653C201.117 71.7111 201.025 72.2598 201.025 72.6227C201.025 73.7171 202.028 74.6287 203.214 74.6287C204.309 74.6287 205.037 73.9915 205.492 72.897L212.967 56.3973H250.616L258.091 72.8056C258.546 73.8086 259.369 74.6287 260.46 74.6287C261.738 74.6287 262.738 73.6257 262.738 72.4398C262.738 71.9826 262.646 71.5282 262.372 70.9824H262.378ZM214.976 52.1138L231.842 15.1939L248.616 52.1138H214.979H214.976Z" fill="black"/>
</g>
<defs>
<clipPath id="clip0_1065_10242">
<rect width="262.486" height="93.22" fill="white" transform="translate(0.257812)"/>
</clipPath>
</defs>
</svg>
